<?xml version="1.0" standalone="no"?><svg xmlns="http://www.w3.org/2000/svg" viewBox="0 0 1440 320"><path fill="#ffb300" fill-opacity="1" d="M0,128L18.5,128C36.9,128,74,128,111,160C147.7,192,185,256,222,256C258.5,256,295,192,332,170.7C369.2,149,406,171,443,176C480,181,517,171,554,149.3C590.8,128,628,96,665,96C701.5,96,738,128,775,149.3C812.3,171,849,181,886,154.7C923.1,128,960,64,997,53.3C1033.8,43,1071,85,1108,117.3C1144.6,149,1182,171,1218,165.3C1255.4,160,1292,128,1329,101.3C1366.2,75,1403,53,1422,42.7L1440,32L1440,320L1421.5,320C1403.1,320,1366,320,1329,320C1292.3,320,1255,320,1218,320C1181.5,320,1145,320,1108,320C1070.8,320,1034,320,997,320C960,320,923,320,886,320C849.2,320,812,320,775,320C738.5,320,702,320,665,320C627.7,320,591,320,554,320C516.9,320,480,320,443,320C406.2,320,369,320,332,320C295.4,320,258,320,222,320C184.6,320,148,320,111,320C73.8,320,37,320,18,320L0,320Z"></path></svg>